<svg id="Layer_1" data-name="Layer 1" xmlns="http://www.w3.org/2000/svg" viewBox="0 0 300 300"><defs><style>.cls-1{fill:#be5927;}.cls-2{fill:#90b4c6;}.cls-3{fill:#80b0c5;}.cls-4{fill:#86b1c4;}.cls-5{fill:#84afc2;}</style></defs><title>uta_icon_checkmark</title><g id="XU7xCR.tif"><path class="cls-1" d="M146.51,246q-4.92-4.57-9.83-9.15c-.3-.27-.53-.6-.81-.89q-8.25-8.46-16.49-16.9-9.34-9.62-18.64-19.24L83.06,181.56q-9.63-10-19.27-19.9-8.85-9.12-17.68-18.27c-1.43-1.49-2.81-3-4.29-4.48-.76-.74-.45-1.15.19-1.67q7.34-5.94,14.65-11.9c3.52-2.86,7.07-5.68,10.55-8.58.71-.59,1.07-.52,1.75,0,6.2,5,12.45,9.9,18.67,14.85l24.58,19.57c5.16,4.11,10.34,8.2,15.47,12.34.79.64,1.15.73,1.89-.15q6.48-7.68,13.15-15.19c11-12.4,22.53-24.24,34.39-35.78q14.58-14.17,30-27.42a647.68,647.68,0,0,1,57.15-44.06q9.66-6.61,19.6-12.82c1-.61,1.33-.45,1.74.53Q288.28,35,291,41.28a1.65,1.65,0,0,1-.43,2.21q-9.24,8.61-18,17.72Q261.4,72.8,250.82,85q-11.62,13.32-22.55,27.22t-21.34,28.56q-15.65,22-29.62,45.07c-8.51,14.11-16.48,28.52-23.58,43.4-2.62,5.5-5,11.09-7.3,16.74-.07.17-.16.33-.24.5Z"/><path class="cls-1" d="M159.39,1.82a110.87,110.87,0,0,1,17.7,2.07,143.77,143.77,0,0,1,21,5.47c2.77.94,2.77,1,2.77,3.77,0,4,0,8,0,12,0,1-.16,1.29-1.22.85a126.79,126.79,0,0,0-25.17-7.37c-4.11-.77-8.28-1.25-12.47-1.65a124,124,0,0,0-16.12-.52,134.91,134.91,0,0,0-17.46,1.71,133,133,0,0,0-60.94,26.7A126.86,126.86,0,0,0,51.79,59.37a133.27,133.27,0,0,0-27.75,46,125.67,125.67,0,0,0-6.12,24.7c-.58,4.07-.92,8.15-1.26,12.24-.35,4.39-.09,8.76-.22,13.14a8.56,8.56,0,0,0,.19,1.49,2.55,2.55,0,0,0,.06,1.45,131.65,131.65,0,0,0,5.9,31.77A133.63,133.63,0,0,0,41,227.26a129.65,129.65,0,0,0,18.32,20.82,133.23,133.23,0,0,0,52.16,29.8,141,141,0,0,0,20.93,4.47,124.86,124.86,0,0,0,23.09,1.12,133,133,0,0,0,33.75-5.8A135.19,135.19,0,0,0,227.13,259a133.11,133.11,0,0,0,21.39-18.83,132.68,132.68,0,0,0,32.66-64.93A156,156,0,0,0,283.34,158a118.53,118.53,0,0,0,.17-14.35,119.89,119.89,0,0,0-3.12-22.84c-.29-1.2,0-1.51,1.18-1.5,4.19,0,8.38.06,12.57,0,1.08,0,1.4.48,1.55,1.37.87,5.12,1.65,10.24,2.19,15.42.74,7,.46,14.08.51,21.12a2.46,2.46,0,0,0-.05,1.47,26.16,26.16,0,0,0-.46,5.23,142.62,142.62,0,0,1-5.95,29.93,146.43,146.43,0,0,1-20.73,42,155.08,155.08,0,0,1-11.56,14.28,147.75,147.75,0,0,1-74.45,44.2,161,161,0,0,1-18.28,3.2,140.43,140.43,0,0,1-25,.75,145.64,145.64,0,0,1-51.68-12.33A148.42,148.42,0,0,1,4.08,178c-.91-4.65-1.45-9.37-1.95-14.09-.75-7.09-.47-14.18-.51-21.27a2.31,2.31,0,0,0,0-1.47c.55-1.7.3-3.49.46-5.23a148,148,0,0,1,3.44-20.82,147.37,147.37,0,0,1,29-58.61,151.57,151.57,0,0,1,12.64-13.8A148.15,148.15,0,0,1,117.39,5c5.16-1.17,10.39-1.93,15.64-2.61,8.18-1.06,16.36-.81,24.55-.83C158.15,1.89,158.83,1.46,159.39,1.82Z"/><path class="cls-2" d="M159.39,1.82c-.6-.09-1.27.23-1.81-.28C158.2,1.55,158.85,1.32,159.39,1.82Z"/><path class="cls-3" d="M1.65,141.18a1.1,1.1,0,0,1,0,1.47Z"/><path class="cls-4" d="M16.69,158.4a1.12,1.12,0,0,1-.06-1.45Z"/><path class="cls-5" d="M298.34,158.7a1.14,1.14,0,0,1,.05-1.47C298.37,157.72,298.36,158.21,298.34,158.7Z"/></g></svg>